<?xml version="1.0" standalone="no"?>
<!DOCTYPE svg PUBLIC "-//W3C//DTD SVG 20010904//EN"
 "http://www.w3.org/TR/2001/REC-SVG-20010904/DTD/svg10.dtd">
<svg version="1.0" xmlns="http://www.w3.org/2000/svg"
 width="895.000000pt" height="480.000000pt" viewBox="0 0 895.000000 480.000000"
 preserveAspectRatio="xMidYMid meet">

<g transform="translate(0.000000,480.000000) scale(0.100000,-0.100000)"
fill="#000000" stroke="none">
<path d="M1405 3955 c-94 -26 -259 -87 -353 -131 -53 -24 -96 -43 -97 -42 -1
2 -10 19 -19 39 -29 62 -93 77 -145 33 -41 -35 -44 -95 -5 -135 l25 -27 -83
-58 c-46 -32 -130 -99 -187 -149 -280 -241 -374 -488 -212 -555 30 -12 126 -9
170 5 24 8 24 8 18 -54 -3 -35 -7 -64 -9 -66 -2 -3 -43 3 -92 12 -66 12 -90
13 -99 4 -25 -25 7 -45 95 -62 97 -18 110 -24 106 -47 -3 -14 -16 -17 -78 -17
-73 0 -75 -1 -75 -25 0 -24 2 -25 77 -28 78 -3 90 -9 102 -49 6 -19 2 -22 -48
-33 -55 -11 -71 -26 -56 -50 7 -11 20 -12 72 -3 62 11 63 10 83 -16 11 -14 37
-45 59 -68 44 -49 44 -37 -8 -207 -71 -230 -115 -518 -101 -666 14 -152 54
-287 110 -372 14 -21 25 -42 25 -47 0 -6 -50 -12 -122 -13 -115 -3 -123 -4
-123 -23 0 -20 7 -20 905 -20 898 0 905 0 905 20 0 19 -8 20 -160 23 -88 1
-166 4 -173 7 -24 9 6 42 45 50 85 16 204 60 293 108 74 41 116 73 191 147 83
82 102 108 145 194 47 95 49 101 49 185 0 79 -3 91 -28 129 -32 50 -91 82
-148 82 -83 0 -129 -55 -149 -175 -6 -39 -16 -95 -21 -125 -14 -86 -64 -177
-134 -245 -56 -56 -118 -95 -131 -82 -3 3 0 34 7 68 17 83 17 385 0 514 -7 55
-24 167 -37 249 l-24 148 34 39 c19 21 47 56 62 78 29 44 21 43 138 20 53 -10
70 -3 64 27 -2 15 -19 22 -73 33 -39 7 -72 15 -74 17 -2 1 -1 15 3 29 6 24 9
25 84 25 89 0 126 16 103 44 -10 12 -32 16 -87 16 -66 0 -74 2 -74 19 0 23 6
25 124 45 95 17 112 25 103 50 -8 20 -34 20 -133 1 -43 -8 -78 -14 -80 -12 -1
1 -7 46 -13 99 -6 55 -24 133 -41 182 l-30 85 15 85 c35 206 42 425 14 479 -6
10 -21 17 -39 17 -39 0 -161 -44 -238 -87 -35 -19 -66 -33 -68 -30 -3 3 2 19
11 37 9 17 18 52 21 78 5 39 1 56 -23 102 -23 44 -39 59 -82 82 -47 25 -63 28
-145 27 -50 0 -113 -6 -141 -14z m662 -414 c-3 -91 -14 -201 -26 -263 l-20
-107 24 -59 c31 -77 57 -207 53 -268 l-3 -49 -50 -11 c-114 -26 -135 -34 -135
-54 0 -29 14 -32 85 -15 81 19 95 19 95 1 0 -9 -18 -16 -52 -20 -89 -12 -99
-16 -96 -40 3 -19 8 -21 66 -18 62 3 69 -1 53 -26 -6 -10 -29 -13 -87 -10 -75
3 -79 2 -82 -19 -4 -24 11 -30 82 -35 22 -2 41 -8 43 -14 6 -19 -100 -126
-161 -163 -32 -19 -93 -48 -138 -66 -84 -34 -108 -54 -84 -74 17 -14 126 23
217 75 34 19 66 31 69 27 13 -13 59 -338 71 -494 12 -158 3 -307 -27 -428 -20
-84 -75 -198 -118 -245 -33 -35 -35 -36 -108 -36 -41 0 -77 3 -81 6 -3 4 2 23
12 43 46 91 121 395 121 488 0 30 -3 34 -22 31 -20 -3 -24 -15 -44 -127 -30
-164 -67 -291 -107 -371 l-32 -65 -87 -3 c-80 -3 -88 -1 -98 18 -8 15 -11 100
-9 276 3 268 -2 298 -38 261 -15 -14 -17 -48 -18 -284 l-2 -268 -23 0 -23 0 2
281 c2 252 1 282 -14 294 -15 12 -19 12 -30 -3 -9 -13 -11 -70 -8 -240 3 -122
1 -247 -4 -277 l-8 -55 -104 0 -104 0 -33 66 c-41 81 -77 204 -109 369 -35
175 -33 170 -54 170 -10 0 -21 -6 -24 -14 -7 -19 37 -252 68 -361 15 -49 39
-120 54 -157 16 -37 26 -69 23 -73 -3 -3 -43 -5 -88 -5 -92 0 -100 4 -152 85
-117 183 -132 492 -41 865 30 122 78 270 88 270 5 0 38 -14 73 -30 35 -17 99
-38 141 -47 73 -16 79 -16 94 0 25 24 8 36 -78 53 -125 26 -247 93 -305 169
-34 45 -27 51 63 61 34 3 70 12 80 20 16 12 17 14 2 29 -14 14 -25 14 -110 1
-52 -7 -97 -12 -101 -9 -5 2 -8 13 -8 24 0 17 6 20 45 18 49 -3 69 9 59 34 -4
11 -24 18 -65 23 -33 4 -62 11 -65 15 -13 21 10 25 67 12 66 -15 121 -14 126
2 7 23 -18 36 -103 53 l-89 18 -3 46 c-2 31 2 50 12 61 32 32 287 198 441 287
217 126 577 310 605 310 13 0 58 23 102 51 134 86 308 165 332 151 5 -3 6 -74
3 -161z"/>
<path d="M1852 3510 c-59 -39 -78 -63 -66 -81 9 -15 34 -10 72 16 20 14 40 25
45 25 4 0 7 -26 5 -57 -3 -53 -1 -58 19 -61 24 -4 27 4 38 95 12 113 -15 128
-113 63z"/>
<path d="M1267 3093 c-4 -3 -7 -20 -7 -38 0 -17 -5 -36 -12 -43 -16 -16 -126
-15 -303 2 -77 8 -145 11 -152 9 -23 -9 -15 -42 11 -49 19 -4 26 -15 31 -43 9
-55 45 -112 92 -145 114 -80 278 -16 300 117 4 27 13 42 29 49 13 6 31 22 39
35 17 25 23 82 11 101 -8 13 -29 16 -39 5z m-281 -141 c7 -4 17 -26 23 -48 6
-23 20 -53 32 -68 l20 -26 -33 0 c-62 0 -121 52 -134 118 l-6 32 43 0 c24 0
49 -4 55 -8z"/>
<path d="M1374 3076 c-11 -45 21 -111 62 -126 17 -7 24 -17 24 -35 0 -80 91
-165 176 -165 114 0 191 67 218 193 4 15 12 27 20 27 7 0 19 7 26 16 11 12 11
18 -1 29 -12 12 -35 12 -159 0 -181 -18 -282 -19 -298 -3 -7 7 -12 22 -12 34
0 35 -11 54 -31 54 -11 0 -21 -9 -25 -24z m267 -168 c6 -24 20 -55 31 -70 l19
-28 -36 0 c-73 0 -124 37 -140 102 -7 26 -5 27 37 31 23 2 51 4 60 5 12 2 20
-10 29 -40z"/>
<path d="M1302 2850 c-31 -13 -39 -40 -17 -56 36 -26 135 -11 135 20 0 17 -50
46 -77 45 -10 0 -28 -4 -41 -9z"/>
<path d="M1178 2720 c-27 -18 -48 -35 -48 -39 0 -3 -20 -28 -43 -54 -60 -64
-123 -65 -94 0 11 24 4 53 -13 53 -22 0 -50 -41 -50 -74 0 -73 61 -110 172
-104 82 4 140 28 205 83 l40 34 27 -28 c50 -52 122 -84 201 -89 115 -7 170 20
181 90 5 28 1 40 -19 64 -24 27 -27 28 -42 13 -14 -14 -15 -20 -4 -36 17 -28
5 -53 -25 -53 -17 0 -40 18 -81 65 -78 89 -113 109 -173 101 -59 -8 -85 -8
-142 -1 -39 6 -51 2 -92 -25z"/>
<path d="M837 2719 c-23 -13 -22 -56 2 -69 25 -13 67 19 58 43 -9 24 -40 37
-60 26z"/>
<path d="M1806 2714 c-18 -17 -19 -24 -10 -48 9 -24 61 -21 69 4 12 38 -33 71
-59 44z"/>
<path d="M1278 2520 c-16 -16 -28 -38 -26 -47 5 -26 44 -28 58 -4 14 27 42 27
65 1 10 -11 26 -20 37 -20 30 0 23 44 -13 74 -42 35 -82 34 -121 -4z"/>
<path d="M1133 2243 c-23 -53 -22 -177 1 -226 26 -52 54 -57 114 -18 66 42
122 42 190 0 57 -35 77 -35 105 3 43 58 29 269 -19 276 -11 1 -45 -15 -77 -38
-48 -33 -66 -40 -106 -40 -40 0 -56 6 -101 40 -68 50 -86 51 -107 3z m232
-128 c0 -23 -5 -30 -19 -30 -28 0 -43 29 -26 50 21 25 45 14 45 -20z"/>
<path d="M3719 3175 c-48 -26 -54 -60 -54 -305 0 -196 2 -229 18 -257 23 -42
71 -56 176 -52 79 4 84 6 112 37 l29 32 0 245 0 245 -29 32 c-29 33 -31 33
-128 36 -72 1 -105 -2 -124 -13z m136 -300 c0 -163 -1 -170 -20 -170 -19 0
-20 8 -23 173 l-2 173 22 -3 c23 -3 23 -4 23 -173z"/>
<path d="M4824 3180 c-12 -4 -31 -21 -43 -36 -21 -27 -22 -34 -19 -276 l3
-248 28 -27 c25 -26 34 -28 120 -31 73 -2 99 1 127 15 56 29 62 62 58 318 -3
244 -8 263 -70 284 -36 13 -174 14 -204 1z m124 -302 c-3 -165 -4 -173 -23
-173 -19 0 -20 8 -23 160 -1 87 0 165 2 172 3 7 15 13 26 13 20 0 20 -4 18
-172z"/>
<path d="M6461 3177 c-57 -29 -61 -46 -65 -262 -5 -236 1 -286 38 -323 23 -24
35 -27 108 -31 44 -2 98 2 119 8 65 20 69 36 69 305 0 154 -4 244 -11 260 -18
39 -66 56 -156 56 -43 0 -89 -6 -102 -13z m127 -299 c-3 -165 -4 -173 -23
-173 -19 0 -20 8 -23 160 -1 87 0 165 2 172 3 7 15 13 26 13 20 0 20 -4 18
-172z"/>
<path d="M3121 3163 c0 -10 19 -76 43 -148 l42 -130 -42 -135 c-22 -74 -44
-145 -48 -157 -7 -22 -6 -23 67 -23 l75 0 6 38 c14 77 18 92 27 92 5 0 9 -7 9
-15 0 -7 5 -37 11 -65 l11 -50 70 0 c83 0 81 -20 19 180 l-41 134 45 137 c25
76 45 142 45 148 0 7 -26 11 -69 11 l-70 0 -12 -60 c-6 -33 -15 -63 -19 -65
-4 -3 -13 24 -20 60 l-12 65 -69 0 c-59 0 -69 -2 -68 -17z"/>
<path d="M4215 3149 c4 -17 24 -83 46 -146 l39 -116 -45 -148 c-25 -81 -45
-152 -45 -158 0 -7 26 -11 69 -11 l70 0 12 60 c6 33 15 63 19 65 4 3 13 -24
20 -60 l12 -65 69 0 c57 0 69 3 69 16 0 9 -18 75 -40 146 -22 72 -40 140 -40
152 0 12 18 76 40 141 22 65 40 127 40 137 0 16 -9 18 -69 18 l-69 0 -12 -66
c-7 -36 -16 -62 -20 -57 -4 4 -12 34 -19 66 l-12 57 -71 0 -70 0 7 -31z"/>
<path d="M5307 3174 c-4 -4 -7 -142 -7 -306 l1 -298 75 0 74 0 0 122 c0 69 4
118 9 113 4 -6 19 -61 32 -122 l23 -113 63 0 63 0 0 305 0 305 -70 0 -70 0 0
-117 c0 -64 -3 -113 -7 -109 -5 4 -19 55 -33 114 l-25 107 -61 3 c-33 2 -63 0
-67 -4z"/>
<path d="M5850 2875 l0 -305 73 0 72 0 0 117 c0 115 1 118 23 121 22 3 22 2
22 -117 l0 -121 75 0 75 0 0 305 0 306 -72 -3 -73 -3 -3 -118 c-3 -116 -3
-118 -25 -115 -21 3 -22 7 -24 118 l-1 115 -71 3 -71 3 0 -306z"/>
<path d="M6940 2875 l0 -305 75 0 75 0 0 120 0 120 70 0 70 0 0 65 0 64 -67 3
-68 3 -3 52 -3 52 78 3 78 3 0 60 0 60 -152 3 -153 3 0 -306z"/>
<path d="M7450 2875 l0 -305 150 0 150 0 0 65 0 65 -75 0 -75 0 -2 238 -3 237
-72 3 -73 3 0 -306z"/>
<path d="M7960 2875 l0 -305 75 0 75 0 0 305 0 305 -75 0 -75 0 0 -305z"/>
<path d="M8313 3166 c18 -48 87 -271 87 -283 0 -12 -73 -262 -87 -300 -4 -10
14 -13 71 -13 60 0 76 3 76 15 0 34 23 116 30 108 5 -4 12 -33 17 -63 l8 -55
73 -3 c42 -2 72 1 72 7 0 5 -20 75 -45 156 l-46 146 46 142 c25 78 45 145 45
150 0 4 -31 7 -70 7 -68 0 -70 -1 -76 -27 -26 -118 -28 -119 -48 -28 l-11 50
-74 3 c-61 2 -73 0 -68 -12z"/>
</g>
</svg>
